<svg width="32" height="32" viewBox="0 0 32 32" fill="none" xmlns="http://www.w3.org/2000/svg">
<rect x="24" y="32" width="24" height="18" transform="rotate(180 24 32)" fill="#1967D2"/>
<rect x="24" y="25" width="24" height="18" transform="rotate(180 24 25)" fill="#FBBC04"/>
<rect x="32" y="32" width="25" height="25" transform="rotate(180 32 32)" fill="#4285F4"/>
<rect x="25" y="7" width="18" height="7" transform="rotate(180 25 7)" fill="#34A853"/>
<rect x="32" y="7" width="7" height="7" transform="rotate(180 32 7)" fill="#188038"/>
<rect x="25" y="25" width="18" height="18" transform="rotate(180 25 25)" fill="white"/>
<path d="M15.5762 13.6035V14.8066H11.4062V13.6035H15.5762ZM12.6094 11.792H14.2568V18.9561C14.2568 19.1839 14.2887 19.3594 14.3525 19.4824C14.4209 19.6009 14.5143 19.6807 14.6328 19.7217C14.7513 19.7627 14.8903 19.7832 15.0498 19.7832C15.1637 19.7832 15.2731 19.7764 15.3779 19.7627C15.4827 19.749 15.5671 19.7354 15.6309 19.7217L15.6377 20.9795C15.501 21.0205 15.3415 21.057 15.1592 21.0889C14.9814 21.1208 14.7764 21.1367 14.5439 21.1367C14.1657 21.1367 13.8307 21.0706 13.5391 20.9385C13.2474 20.8018 13.0195 20.5807 12.8555 20.2754C12.6914 19.9701 12.6094 19.5645 12.6094 19.0586V11.792ZM20.2383 13.6035V14.8066H16.0684V13.6035H20.2383ZM17.2715 11.792H18.9189V18.9561C18.9189 19.1839 18.9508 19.3594 19.0146 19.4824C19.083 19.6009 19.1764 19.6807 19.2949 19.7217C19.4134 19.7627 19.5524 19.7832 19.7119 19.7832C19.8258 19.7832 19.9352 19.7764 20.04 19.7627C20.1449 19.749 20.2292 19.7354 20.293 19.7217L20.2998 20.9795C20.1631 21.0205 20.0036 21.057 19.8213 21.0889C19.6436 21.1208 19.4385 21.1367 19.2061 21.1367C18.8278 21.1367 18.4928 21.0706 18.2012 20.9385C17.9095 20.8018 17.6816 20.5807 17.5176 20.2754C17.3535 19.9701 17.2715 19.5645 17.2715 19.0586V11.792Z" fill="#4285F4"/>
<path d="M0 7L7 0V7H0Z" fill="#F72A25"/>
</svg>
